<svg width="96" height="93" xmlns="http://www.w3.org/2000/svg"><title>Illustrative/Small/Freelancer/highlight</title><g fill="none" fill-rule="evenodd"><path d="M.75 34.669v21.33a3.252 3.252 0 0 0 3.253 3.251h87.994a3.25 3.25 0 0 0 3.253-3.252v-21.33a3.252 3.252 0 0 0-3.253-3.251H4.003A3.25 3.25 0 0 0 .75 34.669z" stroke="#139FF0" stroke-width="1.5"/><g transform="translate(6.667)"><g transform="translate(0 37.634)" stroke="#139FF0" stroke-width="1.5"><rect fill-opacity=".2" fill="#139FF0" x="1.468" y="1.468" width="13.269" height="13.269" rx="2"/><path stroke-linecap="square" d="M20.103 2.103H64.41M69.949 2.103h11.077M69.949 7.641h11.077M69.949 13.179h11.077M20.103 7.641H64.41M20.103 13.179h29.538"/></g><rect fill-opacity=".2" fill="#139FF0" x="1.075" y="68.129" width="80.516" height="24.774" rx="4"/><rect fill-opacity=".2" fill="#139FF0" x="1.075" width="80.516" height="24.774" rx="4"/></g></g></svg>
