<svg width="72" height="96" viewBox="0 0 72 96" xmlns="http://www.w3.org/2000/svg"><g transform="translate(1 -1)" fill="none" fill-rule="evenodd"><ellipse stroke="#139FF0" stroke-width="1.31507" cx="35.43135" cy="62.23466" rx="19.29872" ry="18.86123"/><ellipse stroke="#139FF0" stroke-width="1.31507" cx="35.43135" cy="62.23466" rx="15.30588" ry="14.9589"/><path d="M21.87752 2.59903l4.99153 8.73503 17.97197.15178 5.09835-8.8868H21.87752zm28.64506-1.31506l.895 1.377-5.82082 10.14636-19.4923-.16461-5.73188-10.03175.88803-1.31756-.01303-.00944h29.275z" fill="#139FF0" fill-rule="nonzero"/><path d="M21.1204 2.60492l14.93161 25.6988L30.4967 38.38h-2.19781l-9.79272-14.37725c-1.66502-2.4445-2.541-5.26218-2.61838-8.10163-.07738-2.83944.64385-5.70065 2.17326-8.2322l3.05936-5.064z" stroke="#139FF0" stroke-width="1.31507"/><path d="M50.63635 2.6161L30.34338 38.37999h13.10774l9.79272-14.37725c1.66501-2.4445 2.541-5.26218 2.61838-8.10163.07737-2.83944-.64385-5.70065-2.17326-8.2322l-3.0526-5.05281z" stroke="#139FF0" stroke-width="1.31507" fill-opacity=".2" fill="#139FF0"/><g stroke="#139FF0" stroke-linecap="square" stroke-width="1.31507"><path d="M33.60556 39.15314v3.27036M37.70078 39.15314v3.27036"/></g><g stroke="#139FF0" stroke-width=".87671"><path d="M44.79695 55.52196l-5.98986.01271-2.56606 2.87943-5.92778-2.58395.65005 2.81583h-3.5114l5.4998 5.11293-1.16347 6.45042 6.7491-6.52913 1.59056-5.17165 4.66906-2.9866z" fill-opacity=".2" fill="#139FF0"/><path stroke-linecap="square" d="M39.11364 55.86086l1.41816 2.61273M36.01919 58.50577l-2.99464 4.85624M39.9122 58.5925h-9.18352M35.1707 66.4947l-2.09623-2.92675"/></g><g stroke="#139FF0" stroke-width="1.31507"><path stroke-linecap="square" d="M4.93632 45.36987l8.58491 6.13698"/><path d="M0 56.9863l10.41591 2.60703M.42925 71.20977l9.76952-1.9495M4.85248 83.81507l9.44256-6.22602M22.66616 82.84932L17.16981 93.0428"/><g><path stroke-linecap="square" d="M65.06368 45.36987l-8.58491 6.13698"/><path d="M70 56.9863l-10.41591 2.60703M69.57075 71.20977l-9.76952-1.9495M65.14752 83.81507l-9.44256-6.22602M47.33384 82.84932l5.49635 10.19349"/></g><path stroke-linecap="square" d="M34.5625 85.69863v10.0822"/></g></g></svg>
